#define alert_width 40
#define alert_height 10
static unsigned char alert_bits[] = {
   0x10, 0x04, 0x7e, 0x3e, 0xfe, 0x10, 0x04, 0x02, 0x42, 0x10, 0x28, 0x04,
   0x02, 0x42, 0x10, 0x28, 0x04, 0x02, 0x42, 0x10, 0x44, 0x04, 0x3e, 0x42,
   0x10, 0x44, 0x04, 0x02, 0x3e, 0x10, 0xfe, 0x04, 0x02, 0x22, 0x10, 0x82,
   0x04, 0x02, 0x42, 0x10, 0x01, 0x05, 0x02, 0x42, 0x10, 0x01, 0xfd, 0x7e,
   0x82, 0x10 };
