#define arrow_down_width 13
#define arrow_down_height 13
static unsigned char arrow_down_bits[] = {
   0xff, 0x1f, 0xfe, 0x0f, 0xfe, 0x0f, 0xfc, 0x07, 0xfc, 0x07, 0xf8, 0x03,
   0xf8, 0x03, 0xf0, 0x01, 0xf0, 0x01, 0xe0, 0x00, 0xe0, 0x00, 0x40, 0x00,
   0x40, 0x00 };
