#define comma_width 6
#define comma_height 8
static unsigned char comma_bits[] = {
   0x38, 0x38, 0x1c, 0x1c, 0x0e, 0x0e, 0x0f, 0x07 };
