#define diagonal_bottom_width 9
#define diagonal_bottom_height 9
static unsigned char diagonal_bottom_bits[] = {
   0x10, 0x00, 0x30, 0x00, 0x30, 0x00, 0x60, 0x00, 0x60, 0x00, 0xc0, 0x00,
   0xc0, 0x00, 0x80, 0x01, 0x00, 0x01 };
