#define diagonal_top_width 9
#define diagonal_top_height 9
static unsigned char diagonal_top_bits[] = {
   0x01, 0x00, 0x03, 0x00, 0x06, 0x00, 0x06, 0x00, 0x0c, 0x00, 0x0c, 0x00,
   0x18, 0x00, 0x18, 0x00, 0x10, 0x00 };
