#define fpm_width 26
#define fpm_height 10
static unsigned char fpm_bits[] = {
   0x9f, 0x8f, 0x01, 0x03, 0x81, 0x90, 0x01, 0x03, 0x81, 0x90, 0x82, 0x02,
   0x81, 0x90, 0x82, 0x02, 0x9f, 0x90, 0x44, 0x02, 0x81, 0x8f, 0x44, 0x02,
   0x81, 0x80, 0x28, 0x02, 0x81, 0x80, 0x28, 0x02, 0x81, 0x80, 0x10, 0x02,
   0x81, 0x80, 0x10, 0x02 };
