#define ft_width 13
#define ft_height 10
static unsigned char ft_bits[] = {
   0xdf, 0x1f, 0x01, 0x02, 0x01, 0x02, 0x01, 0x02, 0x1f, 0x02, 0x01, 0x02,
   0x01, 0x02, 0x01, 0x02, 0x01, 0x02, 0x01, 0x02 };
