#define horizontal_width 11
#define horizontal_height 3
static unsigned char horizontal_bits[] = {
   0xfe, 0x03, 0xff, 0x07, 0xfe, 0x03 };
