#define horizontal_width 10
#define horizontal_height 3
static unsigned char horizontal_bits[] = {
   0xfe, 0x01, 0xff, 0x03, 0xfe, 0x01 };
