#define hpa_width 25
#define hpa_height 10
static unsigned char hpa_bits[] = {
   0x81, 0x7c, 0x10, 0x00, 0x81, 0x84, 0x10, 0x00, 0x81, 0x84, 0x28, 0x00,
   0x81, 0x84, 0x28, 0x00, 0xff, 0x84, 0x44, 0x00, 0x81, 0x7c, 0x44, 0x00,
   0x81, 0x04, 0xfe, 0x00, 0x81, 0x04, 0x82, 0x00, 0x81, 0x04, 0x01, 0x01,
   0x81, 0x04, 0x01, 0x01 };
