#define inhg_width 38
#define inhg_height 10
static unsigned char inhg_bits[] = {
   0x31, 0x08, 0x10, 0x08, 0x1f, 0x51, 0x08, 0x10, 0x88, 0x20, 0x51, 0x08,
   0x10, 0x48, 0x00, 0x91, 0x08, 0x10, 0x48, 0x00, 0x91, 0x08, 0xf0, 0x4f,
   0x00, 0x11, 0x09, 0x10, 0x48, 0x3c, 0x11, 0x09, 0x10, 0x48, 0x20, 0x11,
   0x0a, 0x10, 0x48, 0x20, 0x11, 0x0a, 0x10, 0x88, 0x20, 0x11, 0x0c, 0x10,
   0x08, 0x1f };
