#define PT_width 7
#define PT_height 23
static unsigned char PT_bits[] = {
   0x3e, 0x42, 0x42, 0x42, 0x42, 0x3e, 0x02, 0x02, 0x02, 0x02, 0x00, 0x00,
   0x00, 0x7f, 0x08, 0x08, 0x08, 0x08, 0x08, 0x08, 0x08, 0x08, 0x08 };
