#define round_top_width 9
#define round_top_height 9
static unsigned char round_top_bits[] = {
   0x03, 0x00, 0x1e, 0x00, 0x3c, 0x00, 0x60, 0x00, 0xc0, 0x00, 0xc0, 0x00,
   0x80, 0x00, 0x80, 0x01, 0x00, 0x01 };
