#define vertical_width 3
#define vertical_height 11
static unsigned char vertical_bits[] = {
   0x02, 0x07, 0x07, 0x07, 0x07, 0x07, 0x07, 0x07, 0x07, 0x07, 0x02 };
