#define vertical_width 3
#define vertical_height 12
static unsigned char vertical_bits[] = {
   0x02, 0x07, 0x07, 0x03, 0x03, 0x07, 0x03, 0x07, 0x07, 0x07, 0x03, 0x02 };
